<?xml version="1.0" encoding="UTF-8" standalone="no"?>
<svg
   xmlns:dc="http://purl.org/dc/elements/1.1/"
   xmlns:cc="http://creativecommons.org/ns#"
   xmlns:rdf="http://www.w3.org/1999/02/22-rdf-syntax-ns#"
   xmlns:svg="http://www.w3.org/2000/svg"
   xmlns="http://www.w3.org/2000/svg"
   xmlns:sodipodi="http://sodipodi.sourceforge.net/DTD/sodipodi-0.dtd"
   xmlns:inkscape="http://www.inkscape.org/namespaces/inkscape"
   width="93.227242mm"
   height="9.7643595mm"
   viewBox="0 0 93.227242 9.7643595"
   version="1.1"
   id="svg8"
   inkscape:version="1.0.2 (e86c870879, 2021-01-15, custom)"
   sodipodi:docname="logo.svg">
  <defs
     id="defs2">
    <clipPath
       clipPathUnits="userSpaceOnUse"
       id="clipPath884">
      <rect
         style="fill:#000000;stroke:#000000;stroke-width:0.284777;stroke-linecap:round;stroke-linejoin:round;paint-order:stroke fill markers"
         id="rect886"
         width="105.40874"
         height="13.068386"
         x="-87.811394"
         y="4.3755665"
         rx="1.2895615"
         ry="2.0918231" />
    </clipPath>
  </defs>
  <sodipodi:namedview
     id="base"
     pagecolor="#ffffff"
     bordercolor="#666666"
     borderopacity="1.0"
     inkscape:pageopacity="0.0"
     inkscape:pageshadow="2"
     inkscape:zoom="1.979899"
     inkscape:cx="148.17224"
     inkscape:cy="47.440969"
     inkscape:document-units="mm"
     inkscape:current-layer="layer1"
     inkscape:document-rotation="0"
     showgrid="false"
     inkscape:window-width="1500"
     inkscape:window-height="1040"
     inkscape:window-x="200"
     inkscape:window-y="0"
     inkscape:window-maximized="0" />
  <metadata
     id="metadata5">
    <rdf:RDF>
      <cc:Work
         rdf:about="">
        <dc:format>image/svg+xml</dc:format>
        <dc:type
           rdf:resource="http://purl.org/dc/dcmitype/StillImage" />
        <dc:title></dc:title>
      </cc:Work>
    </rdf:RDF>
  </metadata>
  <g
     inkscape:label="Слой 1"
     inkscape:groupmode="layer"
     id="layer1"
     transform="translate(-12.716954,-57.397716)">
    <g
       aria-label="TASK TRACKER"
       id="text835"
       style="font-style:normal;font-weight:normal;font-size:10.5833px;line-height:1.25;font-family:sans-serif;fill:#000000;fill-opacity:1;stroke:none;stroke-width:0.264583" />
    <g
       style="fill:white"
       id="g850"
       transform="matrix(0.93054822,0,0,0.93054822,92.670785,52.990374)"
       clip-path="url(#clipPath884)">
      <path
         id="path839"
         d="m 8.97,4.97 a 0.75,0.75 0 0 1 1.071,1.05 l -3.992,4.99 a 0.75,0.75 0 0 1 -1.08,0.02 L 2.324,8.384 a 0.75,0.75 0 1 1 1.06,-1.06 L 5.478,9.417 8.95,4.992 A 0.252,0.252 0 0 1 8.97,4.97 Z m -0.92,5.14 0.92,0.92 a 0.75,0.75 0 0 0 1.079,-0.02 L 14.041,6.02 A 0.75,0.75 0 1 0 12.95,4.992 L 9.477,9.417 8.992,8.931 8.049,10.11 Z m -7.64886979,3.595404 q 0.17059728,0.409434 0.17059728,0.591405 0,0.432182 -0.70513702,0.727884 -0.36394245,0.159225 -0.59140621,0.159225 -0.2160909,0 -0.36394136,-0.102359 -0.1364787,-0.113732 -0.2047181,-0.227464 -0.1137318,-0.216091 -0.8871082,-2.058546 l -0.3525685,0.02275 h -1.4330219 v 1.28517 q 0,0.261583 -0.02275,0.398062 -0.01137,0.125105 -0.102359,0.295702 -0.1592244,0.307077 -0.8871082,0.307077 -0.7961232,0 -0.9326008,-0.420809 -0.068239,-0.193344 -0.068239,-0.591405 V 7.7799773 q 0,-0.2615835 0.01137,-0.3866893 0.02275,-0.1364776 0.1137319,-0.307076 0.1592244,-0.3070759 0.8871082,-0.3070759 h 2.4566089 q 1.0008401,0 1.94481483,0.7278838 0.45492752,0.3525696 0.75063063,0.9553487 0.29570311,0.602778 0.29570311,1.3420357 0,1.2851707 -0.85298965,2.1154137 0.25021057,0.602779 0.77337744,1.78559 z M -3.9661738,10.80524 h 1.4557676 q 0.3298228,0 0.6596445,-0.250209 0.3298228,-0.250211 0.3298228,-0.750631 0,-0.50042 -0.3298228,-0.7506306 Q -2.1805834,8.792186 -2.5331519,8.792186 h -1.4330219 z m -7.2560762,2.297385 h 3.5029413 q 0.2615834,0 0.3866892,0.02275 0.1364776,0.01137 0.307076,0.102359 0.307076,0.159224 0.307076,0.887108 0,0.796123 -0.4208079,0.932602 -0.1933441,0.06824 -0.5914062,0.06824 h -4.5037824 q -0.796122,0 -0.932601,-0.432182 -0.06824,-0.18197 -0.06824,-0.580032 V 7.7799773 q 0,-0.5800334 0.21609,-0.7847503 0.216091,-0.2160909 0.818869,-0.2160909 h 4.4810363 q 0.2615834,0 0.3866892,0.02275 0.1364776,0.01137 0.307076,0.102359 0.307076,0.1592244 0.307076,0.8871083 0,0.7961231 -0.4208079,0.9326007 -0.1933441,0.068239 -0.5914062,0.068239 H -11.22225 v 1.1486927 h 2.2518906 q 0.2615834,0 0.3866892,0.02275 0.1364776,0.01137 0.307076,0.1023592 0.307076,0.159225 0.307076,0.887109 0,0.796123 -0.4321818,0.932601 -0.1933441,0.06824 -0.5914052,0.06824 H -11.22225 Z m -5.709338,-2.172279 q 1.740098,1.671859 2.467982,2.513474 0.375315,0.420808 0.375315,0.716511 0,0.284329 -0.454927,0.682391 -0.454928,0.386689 -0.75063,0.386689 -0.28433,0 -0.693765,-0.477675 l -2.502102,-2.85467 v 2.217772 q 0,0.272957 -0.02275,0.398062 -0.01137,0.125104 -0.102359,0.295703 -0.159224,0.307076 -0.887108,0.307076 -0.796123,0 -0.932602,-0.432182 -0.06824,-0.18197 -0.06824,-0.580032 V 7.779973 q 0,-0.2615835 0.01137,-0.3866893 0.02275,-0.1364776 0.113731,-0.307076 0.159225,-0.3070759 0.887109,-0.3070759 0.796123,0 0.943974,0.4208078 0.05687,0.1933441 0.05687,0.5914062 v 2.1722787 q 1.546754,-1.7400979 2.502102,-2.85467 0.398062,-0.4663003 0.693765,-0.4663003 0.295702,0 0.750629,0.398061 0.454928,0.3866882 0.454928,0.6823913 0,0.2843302 -0.341196,0.6823913 -0.659644,0.7620035 -2.047174,2.0926662 z m -6.084644,2.00168 0.204718,-0.147851 q 0.386688,-0.227464 0.545912,-0.227464 0.352569,0 0.762004,0.636899 0.25021,0.398062 0.25021,0.636898 0,0.238837 -0.159225,0.398061 -0.147852,0.159226 -0.352569,0.284331 -0.204717,0.125104 -0.398061,0.238836 -0.181971,0.113732 -0.762003,0.295703 -0.580034,0.181972 -1.125946,0.181972 -0.53454,0 -1.091826,-0.136479 -0.545913,-0.147852 -1.137319,-0.477673 -0.580032,-0.341196 -1.046333,-0.81887 -0.466301,-0.489047 -0.773377,-1.239678 -0.295703,-0.762004 -0.295703,-1.649112 0,-0.887108 0.295703,-1.603619 0.295703,-0.7278839 0.75063,-1.1941853 0.466301,-0.4776733 1.057707,-0.7961232 1.114572,-0.6141519 2.240518,-0.6141519 0.53454,0 1.080452,0.1705983 0.557287,0.1592244 0.841616,0.3298217 l 0.272957,0.1592255 q 0.204717,0.1251048 0.318449,0.204717 0.295703,0.2388366 0.295703,0.5459126 0,0.2957031 -0.238836,0.6255259 -0.443555,0.6141519 -0.796124,0.6141519 -0.204718,0 -0.580033,-0.2502106 -0.477673,-0.3866881 -1.273796,-0.3866881 -0.739258,0 -1.455769,0.511794 -0.341196,0.2502095 -0.568659,0.705137 -0.227464,0.4549272 -0.227464,1.0349602 0,0.568659 0.227464,1.023587 0.227463,0.454927 0.580033,0.71651 0.693764,0.500422 1.444395,0.500422 0.352568,0 0.659644,-0.09099 0.31845,-0.09099 0.454928,-0.181971 z m -8.52987,-5.561488 3.070761,6.346239 q 0.193344,0.386688 0.193344,0.580032 0,0.409435 -0.659645,0.739258 -0.386688,0.193344 -0.614151,0.193344 -0.216091,0 -0.363943,-0.102359 -0.136479,-0.102359 -0.204717,-0.216091 -0.05687,-0.113732 -0.170598,-0.341196 l -0.591405,-1.228304 h -3.150373 l -0.591407,1.228304 q -0.113731,0.227464 -0.181971,0.329823 -0.05687,0.102359 -0.204717,0.216091 -0.136478,0.102359 -0.363942,0.102359 -0.216091,0 -0.602779,-0.193345 -0.659645,-0.318449 -0.659645,-0.727884 0,-0.193344 0.193344,-0.580032 l 3.070761,-6.3576119 q 0.125105,-0.2615834 0.375315,-0.4208089 0.261584,-0.1592244 0.545913,-0.1592244 0.614152,0 0.909855,0.5914062 z m -0.921228,2.729565 -0.75063,1.558127 h 1.512634 z m -4.685738,3.605301 q 0.170599,0.409434 0.170599,0.591405 0,0.432182 -0.705138,0.727884 -0.363942,0.159225 -0.591406,0.159225 -0.21609,0 -0.363942,-0.102359 -0.136479,-0.113732 -0.204717,-0.227464 -0.113732,-0.216091 -0.887109,-2.058546 l -0.352569,0.02275 h -1.433022 v 1.28517 q 0,0.261583 -0.02275,0.398062 -0.01137,0.125105 -0.102359,0.295702 -0.159224,0.307077 -0.887108,0.307077 -0.796123,0 -0.932602,-0.420809 -0.06824,-0.193344 -0.06824,-0.591405 V 7.7799773 q 0,-0.2615835 0.01137,-0.3866893 0.02275,-0.1364776 0.113732,-0.307076 0.159225,-0.3070759 0.887109,-0.3070759 h 2.456608 q 1.000841,0 1.944815,0.7278838 0.454928,0.3525696 0.750631,0.9553487 0.295702,0.602778 0.295702,1.3420357 0,1.2851707 -0.852989,2.1154137 0.250211,0.602779 0.773377,1.78559 z m -4.367304,-2.900164 h 1.455769 q 0.329822,0 0.659644,-0.250209 0.329823,-0.250211 0.329823,-0.750631 0,-0.50042 -0.329823,-0.7506306 Q -39.734781,8.792186 -40.08735,8.792186 h -1.433022 z m -9.78093,-4.0374811 h 6.323493 q 0.363941,0 0.53454,0.090989 0.170597,0.079609 0.227464,0.2615834 0.05687,0.1819712 0.05687,0.4776743 0,0.2957032 -0.05687,0.4776733 -0.05687,0.1705984 -0.193344,0.2388377 -0.204719,0.102359 -0.580034,0.102359 h -2.172278 V 14.13759 q 0,0.261583 -0.02275,0.386688 -0.01137,0.125106 -0.102359,0.295703 -0.07961,0.159224 -0.295704,0.227464 -0.21609,0.06824 -0.568659,0.06824 -0.352569,0 -0.568659,-0.06824 -0.204717,-0.06824 -0.295704,-0.227464 -0.07961,-0.170597 -0.102359,-0.295703 -0.01137,-0.136478 -0.01137,-0.398061 V 8.4168706 h -2.183652 q -0.363942,0 -0.534539,-0.079609 -0.170599,-0.090989 -0.227464,-0.2729563 -0.05687,-0.1819713 -0.05687,-0.4776733 0,-0.2957031 0.05687,-0.4663015 0.05687,-0.1819712 0.193344,-0.2502095 0.204717,-0.102359 0.580032,-0.102359 z m -2.115397,6.7670461 h -2.706818 q -0.636899,0 -0.762004,-0.386688 -0.05687,-0.204717 -0.05687,-0.523167 0,-0.318449 0.06824,-0.511793 0.06824,-0.193344 0.216091,-0.272956 0.204717,-0.102359 0.545912,-0.102359 h 2.70682 q 0.636898,0 0.750629,0.375315 0.06824,0.204717 0.06824,0.523167 0,0.318449 -0.06824,0.523166 -0.05687,0.193344 -0.193344,0.272957 -0.204717,0.102359 -0.568659,0.102359 z m -7.051375,-2.604459 q 1.740097,1.671859 2.467981,2.513474 0.375316,0.420808 0.375316,0.716511 0,0.284329 -0.454928,0.682391 -0.454927,0.386689 -0.750631,0.386689 -0.284329,0 -0.693764,-0.477675 l -2.502101,-2.85467 v 2.217772 q 0,0.272957 -0.02275,0.398062 -0.01137,0.125104 -0.102359,0.295703 -0.159225,0.307076 -0.887109,0.307076 -0.796124,0 -0.932601,-0.432182 -0.06824,-0.18197 -0.06824,-0.580032 V 7.779973 q 0,-0.2615835 0.01137,-0.3866893 0.02275,-0.1364776 0.113732,-0.307076 0.159225,-0.3070759 0.887109,-0.3070759 0.796123,0 0.943975,0.4208078 0.05687,0.1933441 0.05687,0.5914062 v 2.1722787 q 1.546754,-1.7400979 2.502101,-2.85467 0.398062,-0.4663003 0.693764,-0.4663003 0.295703,0 0.750631,0.398061 0.454927,0.3866882 0.454927,0.6823913 0,0.2843302 -0.341195,0.6823913 -0.659645,0.7620035 -2.047174,2.0926662 z m -10.076625,3.013894 q -0.295703,-0.363942 -0.295703,-0.648271 0,-0.295703 0.489047,-0.773377 0.284329,-0.272957 0.602778,-0.272957 0.31845,0 0.88711,0.568659 0.159224,0.193344 0.454927,0.375316 0.295703,0.170598 0.545913,0.170598 1.057706,0 1.057706,-0.864362 0,-0.261584 -0.295703,-0.432181 -0.284329,-0.181971 -0.716511,-0.261584 -0.432181,-0.07961 -0.932601,-0.25021 -0.50042,-0.181971 -0.932601,-0.420808 -0.432181,-0.238837 -0.727884,-0.750631 -0.284329,-0.5231666 -0.284329,-1.2510504 0,-1.0008401 0.739256,-1.7400979 0.750631,-0.7506295 2.035801,-0.7506295 0.682392,0 1.239677,0.1819701 0.568659,0.1705984 0.78475,0.3525696 l 0.284331,0.2160898 q 0.352568,0.3298228 0.352568,0.5572866 0,0.2274637 -0.272956,0.6255258 -0.38669,0.5686595 -0.796123,0.5686595 -0.238838,0 -0.591407,-0.2274638 -0.03412,-0.02275 -0.136477,-0.1137319 -0.09099,-0.090989 -0.170599,-0.1478515 -0.238836,-0.1478516 -0.614152,-0.1478516 -0.363942,0 -0.614152,0.1819712 -0.238837,0.1705973 -0.238837,0.4890461 0,0.3070771 0.28433,0.5004212 0.295703,0.1933441 0.727884,0.2615834 0.432181,0.068239 0.943975,0.2160903 0.511793,0.136478 0.943974,0.341195 0.432181,0.204718 0.716511,0.716511 0.295702,0.50042 0.295702,1.239678 0,0.739257 -0.295702,1.307916 -0.295703,0.557287 -0.773377,0.864363 -0.921228,0.602779 -1.967562,0.602779 -0.53454,0 -1.012213,-0.125105 -0.477674,-0.136479 -0.773377,-0.329823 -0.602778,-0.363942 -0.841616,-0.705138 z m -3.673525,-6.573702 3.070761,6.346239 q 0.193344,0.386688 0.193344,0.580032 0,0.409435 -0.659645,0.739258 -0.386689,0.193344 -0.614152,0.193344 -0.216091,0 -0.363943,-0.102359 -0.136477,-0.102359 -0.204717,-0.216091 -0.05687,-0.113732 -0.170597,-0.341196 l -0.591406,-1.228304 h -3.150373 l -0.591406,1.228304 q -0.113732,0.227464 -0.181971,0.329823 -0.05687,0.102359 -0.204718,0.216091 -0.136477,0.102359 -0.363941,0.102359 -0.216091,0 -0.602779,-0.193345 -0.659646,-0.318449 -0.659646,-0.727884 0,-0.193344 0.193345,-0.580032 l 3.07076,-6.3576119 q 0.125106,-0.2615834 0.375316,-0.4208089 0.261583,-0.1592244 0.545913,-0.1592244 0.614152,0 0.909855,0.5914062 z m -0.921229,2.729565 -0.750629,1.558127 h 1.512633 z m -9.95151,-3.3323441 h 6.323492 q 0.363942,0 0.53454,0.090989 0.170598,0.079609 0.227463,0.2615834 0.05687,0.1819712 0.05687,0.4776743 0,0.2957032 -0.05687,0.4776733 -0.05687,0.1705984 -0.193344,0.2388377 -0.204717,0.102359 -0.580032,0.102359 h -2.172279 V 14.13759 q 0,0.261583 -0.02275,0.386688 -0.01137,0.125106 -0.102359,0.295703 -0.07961,0.159224 -0.295703,0.227464 -0.216091,0.06824 -0.568659,0.06824 -0.352569,0 -0.56866,-0.06824 -0.204718,-0.06824 -0.295703,-0.227464 -0.07961,-0.170597 -0.102359,-0.295703 -0.01137,-0.136478 -0.01137,-0.398061 V 8.4168706 h -2.183652 q -0.363942,0 -0.534541,-0.079609 -0.170597,-0.090989 -0.227463,-0.2729563 -0.05687,-0.1819713 -0.05687,-0.4776733 0,-0.2957031 0.05687,-0.4663015 0.05687,-0.1819712 0.193345,-0.2502095 0.204717,-0.102359 0.580032,-0.102359 z" />
    </g>
  </g>
</svg>
